<svg width="636" height="236" viewBox="0 0 636 236" fill="none" xmlns="http://www.w3.org/2000/svg">
<g clip-path="url(#clip0_19_16)">
<g filter="url(#filter0_d_19_16)">
<path d="M0 68.2823C20.601 63.9727 68.816 56.6463 96.868 61.8179C131.934 68.2823 142.892 93.145 170.506 85.6863C198.12 78.2274 258.17 25.5177 299.81 46.9C341.45 68.2823 355.038 124.473 406.759 85.6863C458.481 46.9 454.098 26.5123 497.053 30.4904C540.008 34.4685 610.578 47.8945 636 30.4904" stroke="#5261F5" stroke-width="4" stroke-linecap="round"/>
</g>
<path d="M0 136.756C20.601 132.45 47.7767 110.227 75.829 115.394C110.895 121.852 125.797 164.583 153.411 157.131C181.025 149.679 254.774 106.546 299.81 115.394C355.476 126.33 347.586 175.505 399.308 136.756C451.03 98.006 482.589 121.362 525.544 125.336C568.499 129.311 610.578 116.387 636 99" stroke="#9EAEC1" stroke-width="4" stroke-linecap="round"/>
<path d="M20.2274 228.144C19.6114 228.144 19.0714 228.036 18.6074 227.82C18.1434 227.604 17.7794 227.296 17.5154 226.896C17.2594 226.496 17.1274 226.02 17.1194 225.468H18.4634C18.4714 225.916 18.6274 226.296 18.9314 226.608C19.2354 226.92 19.6634 227.076 20.2154 227.076C20.7034 227.076 21.0834 226.96 21.3554 226.728C21.6354 226.488 21.7754 226.184 21.7754 225.816C21.7754 225.52 21.7074 225.28 21.5714 225.096C21.4434 224.912 21.2634 224.76 21.0314 224.64C20.8074 224.52 20.5474 224.412 20.2514 224.316C19.9554 224.22 19.6434 224.116 19.3154 224.004C18.6674 223.788 18.1794 223.508 17.8514 223.164C17.5314 222.82 17.3714 222.368 17.3714 221.808C17.3634 221.336 17.4714 220.924 17.6954 220.572C17.9274 220.22 18.2474 219.948 18.6554 219.756C19.0714 219.556 19.5554 219.456 20.1074 219.456C20.6514 219.456 21.1274 219.556 21.5354 219.756C21.9514 219.956 22.2754 220.236 22.5074 220.596C22.7394 220.948 22.8594 221.36 22.8674 221.832H21.5234C21.5234 221.616 21.4674 221.412 21.3554 221.22C21.2434 221.02 21.0794 220.856 20.8634 220.728C20.6474 220.6 20.3834 220.536 20.0714 220.536C19.6714 220.528 19.3394 220.628 19.0754 220.836C18.8194 221.044 18.6914 221.332 18.6914 221.7C18.6914 222.028 18.7874 222.28 18.9794 222.456C19.1714 222.632 19.4354 222.78 19.7714 222.9C20.1074 223.012 20.4914 223.144 20.9234 223.296C21.3394 223.432 21.7114 223.596 22.0394 223.788C22.3674 223.98 22.6274 224.232 22.8194 224.544C23.0194 224.856 23.1194 225.252 23.1194 225.732C23.1194 226.156 23.0114 226.552 22.7954 226.92C22.5794 227.28 22.2554 227.576 21.8234 227.808C21.3914 228.032 20.8594 228.144 20.2274 228.144ZM24.2701 228V219.6H29.6101V220.632H25.5421V223.248H29.2501V224.256H25.5421V226.968H29.6101V228H24.2701ZM30.8855 228V219.6H33.8255C34.4815 219.6 35.0255 219.712 35.4575 219.936C35.8895 220.152 36.2095 220.452 36.4175 220.836C36.6335 221.212 36.7415 221.64 36.7415 222.12C36.7415 222.576 36.6375 222.996 36.4295 223.38C36.2295 223.756 35.9135 224.056 35.4815 224.28C35.0495 224.504 34.4975 224.616 33.8255 224.616H32.1575V228H30.8855ZM32.1575 223.572H33.7655C34.3655 223.572 34.7935 223.444 35.0495 223.188C35.3135 222.924 35.4455 222.568 35.4455 222.12C35.4455 221.656 35.3135 221.296 35.0495 221.04C34.7935 220.776 34.3655 220.644 33.7655 220.644H32.1575V223.572Z" fill="#A3AED0"/>
<path d="M117.118 228.144C116.286 228.144 115.558 227.96 114.934 227.592C114.31 227.224 113.822 226.716 113.47 226.068C113.118 225.412 112.942 224.656 112.942 223.8C112.942 222.944 113.118 222.192 113.47 221.544C113.822 220.888 114.31 220.376 114.934 220.008C115.558 219.64 116.286 219.456 117.118 219.456C117.95 219.456 118.678 219.64 119.302 220.008C119.926 220.376 120.41 220.888 120.754 221.544C121.106 222.192 121.282 222.944 121.282 223.8C121.282 224.656 121.106 225.412 120.754 226.068C120.41 226.716 119.926 227.224 119.302 227.592C118.678 227.96 117.95 228.144 117.118 228.144ZM117.118 227.004C117.694 227.004 118.194 226.876 118.618 226.62C119.05 226.364 119.386 225.996 119.626 225.516C119.866 225.036 119.986 224.464 119.986 223.8C119.986 223.136 119.866 222.564 119.626 222.084C119.386 221.604 119.05 221.236 118.618 220.98C118.194 220.724 117.694 220.596 117.118 220.596C116.542 220.596 116.038 220.724 115.606 220.98C115.174 221.236 114.838 221.604 114.598 222.084C114.366 222.564 114.25 223.136 114.25 223.8C114.25 224.464 114.366 225.036 114.598 225.516C114.838 225.996 115.174 226.364 115.606 226.62C116.038 226.876 116.542 227.004 117.118 227.004ZM126.203 228.144C125.371 228.144 124.651 227.964 124.043 227.604C123.443 227.236 122.979 226.728 122.651 226.08C122.323 225.424 122.159 224.668 122.159 223.812C122.159 222.948 122.323 222.192 122.651 221.544C122.979 220.888 123.443 220.376 124.043 220.008C124.651 219.64 125.371 219.456 126.203 219.456C127.187 219.456 127.991 219.696 128.615 220.176C129.239 220.656 129.635 221.328 129.803 222.192H128.387C128.275 221.704 128.035 221.316 127.667 221.028C127.299 220.74 126.807 220.596 126.191 220.596C125.351 220.596 124.687 220.884 124.199 221.46C123.711 222.028 123.467 222.812 123.467 223.812C123.467 224.804 123.711 225.584 124.199 226.152C124.687 226.72 125.351 227.004 126.191 227.004C126.807 227.004 127.299 226.868 127.667 226.596C128.035 226.324 128.275 225.952 128.387 225.48H129.803C129.635 226.312 129.239 226.964 128.615 227.436C127.991 227.908 127.187 228.144 126.203 228.144ZM132.777 228V220.632H130.293V219.6H136.521V220.632H134.049V228H132.777Z" fill="#A3AED0"/>
<path d="M210.559 228V219.6H211.831L216.043 225.924V219.6H217.315V228H216.043L211.831 221.676V228H210.559ZM222.656 228.144C221.824 228.144 221.096 227.96 220.472 227.592C219.848 227.224 219.36 226.716 219.008 226.068C218.656 225.412 218.48 224.656 218.48 223.8C218.48 222.944 218.656 222.192 219.008 221.544C219.36 220.888 219.848 220.376 220.472 220.008C221.096 219.64 221.824 219.456 222.656 219.456C223.488 219.456 224.216 219.64 224.84 220.008C225.464 220.376 225.948 220.888 226.292 221.544C226.644 222.192 226.82 222.944 226.82 223.8C226.82 224.656 226.644 225.412 226.292 226.068C225.948 226.716 225.464 227.224 224.84 227.592C224.216 227.96 223.488 228.144 222.656 228.144ZM222.656 227.004C223.232 227.004 223.732 226.876 224.156 226.62C224.588 226.364 224.924 225.996 225.164 225.516C225.404 225.036 225.524 224.464 225.524 223.8C225.524 223.136 225.404 222.564 225.164 222.084C224.924 221.604 224.588 221.236 224.156 220.98C223.732 220.724 223.232 220.596 222.656 220.596C222.08 220.596 221.576 220.724 221.144 220.98C220.712 221.236 220.376 221.604 220.136 222.084C219.904 222.564 219.788 223.136 219.788 223.8C219.788 224.464 219.904 225.036 220.136 225.516C220.376 225.996 220.712 226.364 221.144 226.62C221.576 226.876 222.08 227.004 222.656 227.004ZM230.176 228L227.068 219.6H228.424L230.944 226.68L233.476 219.6H234.82L231.712 228H230.176Z" fill="#A3AED0"/>
<path d="M309.199 228V219.6H311.923C312.907 219.6 313.715 219.772 314.347 220.116C314.987 220.46 315.459 220.948 315.763 221.58C316.075 222.204 316.231 222.948 316.231 223.812C316.231 224.668 316.075 225.412 315.763 226.044C315.459 226.668 314.987 227.152 314.347 227.496C313.715 227.832 312.907 228 311.923 228H309.199ZM310.471 226.92H311.875C312.635 226.92 313.235 226.796 313.675 226.548C314.123 226.3 314.443 225.944 314.635 225.48C314.835 225.016 314.935 224.46 314.935 223.812C314.935 223.164 314.835 222.604 314.635 222.132C314.443 221.66 314.123 221.3 313.675 221.052C313.235 220.796 312.635 220.668 311.875 220.668H310.471V226.92ZM317.397 228V219.6H322.737V220.632H318.669V223.248H322.377V224.256H318.669V226.968H322.737V228H317.397ZM327.756 228.144C326.924 228.144 326.204 227.964 325.596 227.604C324.996 227.236 324.532 226.728 324.204 226.08C323.876 225.424 323.712 224.668 323.712 223.812C323.712 222.948 323.876 222.192 324.204 221.544C324.532 220.888 324.996 220.376 325.596 220.008C326.204 219.64 326.924 219.456 327.756 219.456C328.74 219.456 329.544 219.696 330.168 220.176C330.792 220.656 331.188 221.328 331.356 222.192H329.94C329.828 221.704 329.588 221.316 329.22 221.028C328.852 220.74 328.36 220.596 327.744 220.596C326.904 220.596 326.24 220.884 325.752 221.46C325.264 222.028 325.02 222.812 325.02 223.812C325.02 224.804 325.264 225.584 325.752 226.152C326.24 226.72 326.904 227.004 327.744 227.004C328.36 227.004 328.852 226.868 329.22 226.596C329.588 226.324 329.828 225.952 329.94 225.48H331.356C331.188 226.312 330.792 226.964 330.168 227.436C329.544 227.908 328.74 228.144 327.756 228.144Z" fill="#A3AED0"/>
<path d="M409.757 228.144C408.973 228.144 408.349 227.924 407.885 227.484C407.429 227.044 407.201 226.424 407.201 225.624H408.473C408.473 226.024 408.569 226.356 408.761 226.62C408.961 226.884 409.285 227.016 409.733 227.016C410.173 227.016 410.485 226.892 410.669 226.644C410.853 226.388 410.945 226.064 410.945 225.672V219.6H412.217V225.672C412.217 226.464 411.997 227.076 411.557 227.508C411.117 227.932 410.517 228.144 409.757 228.144ZM412.773 228L415.869 219.6H417.261L420.333 228H418.989L418.269 225.948H414.837L414.117 228H412.773ZM415.197 224.94H417.909L416.553 221.112L415.197 224.94ZM421.264 228V219.6H422.536L426.748 225.924V219.6H428.02V228H426.748L422.536 221.676V228H421.264Z" fill="#A3AED0"/>
<path d="M506.328 228V219.6H511.596V220.632H507.6V223.284H510.912V224.304H507.6V228H506.328ZM512.604 228V219.6H517.944V220.632H513.876V223.248H517.584V224.256H513.876V226.968H517.944V228H512.604ZM519.219 228V219.6H522.387C523.259 219.6 523.919 219.804 524.367 220.212C524.815 220.62 525.039 221.132 525.039 221.748C525.039 222.284 524.895 222.712 524.607 223.032C524.319 223.344 523.971 223.556 523.563 223.668C523.883 223.732 524.167 223.86 524.415 224.052C524.671 224.244 524.871 224.484 525.015 224.772C525.159 225.06 525.231 225.372 525.231 225.708C525.231 226.14 525.123 226.532 524.907 226.884C524.699 227.228 524.391 227.5 523.983 227.7C523.575 227.9 523.075 228 522.483 228H519.219ZM520.491 223.2H522.231C522.719 223.2 523.091 223.088 523.347 222.864C523.603 222.632 523.731 222.316 523.731 221.916C523.731 221.524 523.603 221.212 523.347 220.98C523.099 220.748 522.719 220.632 522.207 220.632H520.491V223.2ZM520.491 226.956H522.315C522.827 226.956 523.223 226.836 523.503 226.596C523.791 226.356 523.935 226.02 523.935 225.588C523.935 225.156 523.787 224.816 523.491 224.568C523.195 224.312 522.795 224.184 522.291 224.184H520.491V226.956Z" fill="#A3AED0"/>
<path d="M601.529 228V219.6H603.029L605.874 225.192L608.706 219.6H610.206V228H608.934V221.796L606.366 226.8H605.382L602.801 221.808V228H601.529ZM611.132 228L614.228 219.6H615.62L618.692 228H617.348L616.628 225.948H613.196L612.476 228H611.132ZM613.556 224.94H616.268L614.912 221.112L613.556 224.94ZM619.624 228V219.6H622.516C623.18 219.6 623.724 219.712 624.148 219.936C624.58 220.16 624.9 220.464 625.108 220.848C625.316 221.224 625.42 221.644 625.42 222.108C625.42 222.628 625.28 223.1 625 223.524C624.728 223.948 624.3 224.252 623.716 224.436L625.504 228H624.028L622.396 224.616H620.896V228H619.624ZM620.896 223.656H622.444C623.02 223.656 623.44 223.516 623.704 223.236C623.976 222.956 624.112 222.592 624.112 222.144C624.112 221.696 623.98 221.34 623.716 221.076C623.452 220.804 623.024 220.668 622.432 220.668H620.896V223.656Z" fill="#A3AED0"/>
</g>
<defs>
<filter id="filter0_d_19_16" x="-43.0005" y="-7" width="722.001" height="155" filterUnits="userSpaceOnUse" color-interpolation-filters="sRGB">
<feFlood flood-opacity="0" result="BackgroundImageFix"/>
<feColorMatrix in="SourceAlpha" type="matrix" values="0 0 0 0 0 0 0 0 0 0 0 0 0 0 0 0 0 0 127 0" result="hardAlpha"/>
<feOffset dy="6"/>
<feGaussianBlur stdDeviation="20.5"/>
<feColorMatrix type="matrix" values="0 0 0 0 0.321569 0 0 0 0 0.380392 0 0 0 0 0.960784 0 0 0 0.6 0"/>
<feBlend mode="normal" in2="BackgroundImageFix" result="effect1_dropShadow_19_16"/>
<feBlend mode="normal" in="SourceGraphic" in2="effect1_dropShadow_19_16" result="shape"/>
</filter>
<clipPath id="clip0_19_16">
<rect width="636" height="236" fill="white"/>
</clipPath>
</defs>
</svg>
